<svg width="30" height="31" viewBox="0 0 30 31" fill="none" xmlns="http://www.w3.org/2000/svg">
<path d="M0 27.3646C4.91448 27.3646 8.89841 23.3806 8.89841 18.4662C8.89841 13.5517 4.91448 9.56775 0 9.56775V15.7966C1.47433 15.7966 2.66951 16.9918 2.66951 18.4662C2.66951 19.9405 1.47433 21.1357 0 21.1357V27.3646Z" fill="#F57463"/>
<path d="M29.6614 12.534C28.1408 12.0523 26.5215 11.7924 24.8414 11.7924C16.0363 11.7924 8.89844 18.9304 8.89844 27.7354C8.89844 28.6192 8.97036 29.4862 9.10862 30.3308H19.0145C18.6609 29.538 18.4643 28.6597 18.4643 27.7354C18.4643 24.2134 21.3194 21.3582 24.8414 21.3582C26.7664 21.3582 28.4921 22.2111 29.6614 23.5596V12.534Z" fill="#F57463"/>
<path d="M1.56445 0.669312C2.30219 7.34305 7.96024 12.5339 14.8306 12.5339C21.7009 12.5339 27.359 7.34305 28.0967 0.669312H18.5512C17.9619 2.14661 16.5181 3.19052 14.8306 3.19052C13.143 3.19052 11.6993 2.14661 11.1099 0.669312H1.56445Z" fill="#F57463"/>
</svg>
